<svg xmlns:xlink="http://www.w3.org/1999/xlink" class="CK__Icon--large" viewBox="0 0 24 24" fill="none" xmlns="http://www.w3.org/2000/svg" width="24"  height="24" ><path fill-rule="evenodd" clip-rule="evenodd" d="M10.854 3.146a.5.5 0 0 0-.708.708L11.5 5.207v5.927L6.367 8.171l-.495-1.85a.5.5 0 1 0-.966.26l.42 1.565-1.567.42a.5.5 0 1 0 .26.966l1.848-.495L11 12l-5.133 2.963-1.849-.495a.5.5 0 1 0-.259.966l1.566.42-.42 1.566a.5.5 0 0 0 .967.258l.495-1.849 5.133-2.963v5.927l-1.354 1.353a.5.5 0 0 0 .708.708L12 19.707l1.146 1.147a.5.5 0 0 0 .708-.708L12.5 18.793v-5.927l5.133 2.963.495 1.85a.5.5 0 1 0 .966-.26l-.42-1.565 1.567-.42a.5.5 0 1 0-.26-.966l-1.848.495L13 12l5.133-2.963 1.849.495a.5.5 0 0 0 .259-.966l-1.566-.42.42-1.566a.5.5 0 0 0-.967-.258l-.495 1.849-5.133 2.963V5.207l1.354-1.353a.5.5 0 0 0-.708-.708L12 4.293l-1.146-1.147Z" fill="#3D3B40"></path></svg>