<svg xmlns:xlink="http://www.w3.org/1999/xlink" class="CK__Icon--large" viewBox="0 0 24 24" fill="none" xmlns="http://www.w3.org/2000/svg" width="24"  height="24" ><path fill-rule="evenodd" clip-rule="evenodd" d="M1.5 3a.5.5 0 0 0 0 1h4v6c0 .021.001.042.004.062a2 2 0 0 0 0 3.876A.505.505 0 0 0 5.5 14v4h-4a.5.5 0 0 0-.5.5v2a.5.5 0 0 0 .5.5h21a.5.5 0 0 0 .5-.5v-2a.5.5 0 0 0-.5-.5h-4v-4a.507.507 0 0 0-.004-.062 2 2 0 0 0 0-3.876A.507.507 0 0 0 18.5 10V4h4a.5.5 0 0 0 0-1h-21Zm16 1h-5v6a.507.507 0 0 1-.004.062 2 2 0 0 1 0 3.876c.003.02.004.041.004.062v4h5v-4c0-.021.001-.042.004-.062a2 2 0 0 1 0-3.876A.507.507 0 0 1 17.5 10V4Zm-6 0h-5v6a.505.505 0 0 1-.004.062 2 2 0 0 1 0 3.876c.003.02.004.041.004.062v4h5v-4c0-.021.001-.042.004-.062a2 2 0 0 1 0-3.876A.507.507 0 0 1 11.5 10V4Zm.5 7a1 1 0 1 0 0 2 1 1 0 0 0 0-2Zm-7 1a1 1 0 1 1 2 0 1 1 0 0 1-2 0Zm13-1a1 1 0 1 0 0 2 1 1 0 0 0 0-2ZM2 19v1h20v-1H2Z" fill="#3D3B40"></path></svg>