<svg width="129" height="129" viewBox="0 0 129 129" fill="none" xmlns="http://www.w3.org/2000/svg">
<circle cx="69" cy="61" r="60" fill="#FFEEDB"/>
<path d="M44.5041 27.1001L40.6406 44.0167L45.7959 46.228C56.5209 51.3392 60.75 47.7384 58.7635 42.8084L56.9963 33.1417L46.3444 25.0459C45.7495 25.5166 45.2136 26.0562 44.7478 26.653C44.686 26.8117 44.6041 26.9619 44.5041 27.1001Z" fill="#F1B99D"/>
<path d="M46.3441 24.9734L56.9959 33.0692L57.6175 36.5371C57.6175 36.5371 49.4762 39.1834 45.3203 26.3388" fill="#B87756"/>
<path d="M59.8723 5.761C60.9448 7.4285 61.6395 9.531 63.4554 10.2681C63.1873 11.7785 61.2495 12.286 59.7017 12.4793C58.7143 12.536 57.7325 12.6652 56.7645 12.866C56.1917 13.0231 55.9114 13.446 55.5457 13.8447C54.1564 15.2464 52.5842 16.4427 51.1826 17.8322C50.2198 18.7385 49.2692 19.6447 48.3185 20.5752L46.1979 22.6172C45.8597 23.0056 45.4702 23.347 45.0401 23.6322C44.7627 23.7891 44.4445 23.8607 44.126 23.8377C43.7698 23.8754 43.4159 23.9319 43.0657 24.0068C42.6617 24.0659 42.251 24.0659 41.847 24.0068C41.5295 23.9774 41.2178 23.9042 40.9207 23.7893C40.7014 23.7047 40.4698 23.7893 40.2504 23.6806C40.0184 23.6117 39.8144 23.4716 39.6677 23.2806C39.521 23.0895 39.4391 22.8573 39.4339 22.6172C39.4772 22.4672 39.4772 22.3081 39.4339 22.1581C39.2754 21.8318 38.7635 21.9285 38.4954 21.6868C38.3908 21.568 38.3332 21.4156 38.3332 21.2579C38.3332 21.1001 38.3908 20.9478 38.4954 20.8289C38.7026 20.5872 38.9355 20.3684 39.1901 20.1764C39.5314 19.8381 40.3357 18.5452 39.8482 18.0377C39.6167 17.796 39.0439 18.0377 38.727 17.9289C38.6173 17.9289 37.5082 17.4335 37.5935 17.3489C38.7741 16.0928 39.4466 14.4496 39.4826 12.7331C39.45 11.9215 39.5237 11.1092 39.702 10.3164C39.8239 9.95391 39.9701 9.61558 40.092 9.26516C40.8825 7.23537 42.2552 5.47951 44.0407 4.21433C46.6508 2.25308 49.9328 1.38536 53.1814 1.79766C54.4491 1.93811 55.6751 2.33172 56.7852 2.95474C57.8954 3.57776 58.8668 4.41728 59.6407 5.42266C59.7139 5.53141 59.787 5.65225 59.8723 5.761Z" fill="#542615"/>
<path d="M44.1506 21.3967C44.1292 21.4731 44.0893 21.5432 44.0342 21.6007C43.9792 21.6582 43.9107 21.7014 43.8349 21.7264C43.759 21.7515 43.6781 21.7577 43.5992 21.7445C43.5204 21.7312 43.446 21.6989 43.3827 21.6505C42.4809 20.9013 40.7137 19.9105 40.3846 23.2092C39.9337 27.7042 44.5284 26.5563 44.9062 27.1001C46.8846 29.6133 49.5006 31.5606 52.4868 32.743C54.7537 33.5163 58.1296 33.4801 60.0309 31.8971C60.5001 31.6107 60.913 31.2422 61.2496 30.8096C61.8889 29.4762 62.1861 28.0069 62.1149 26.5321C62.1862 22.5798 61.9826 18.6272 61.5056 14.7026C61.4202 13.893 61.3593 13.0713 61.274 12.2859C61.1887 11.5005 61.3471 11.1742 60.8718 10.6546C59.9734 9.8574 58.8226 9.39588 57.6177 9.34964C55.4435 9.08075 53.2379 9.20769 51.1096 9.72422C50.0661 9.99816 49.0625 10.4043 48.1237 10.9326C47.4046 11.3313 45.9543 12.0563 45.8081 12.9263C45.6618 13.7963 45.4181 14.9321 45.2352 15.9351C44.9062 17.7113 44.6624 19.5842 44.1506 21.3967Z" fill="#F1B99D"/>
<path d="M41.0547 22.8347L43.6872 24.466C43.6872 24.466 42.3709 20.1039 41.0547 22.8347Z" fill="#B87756"/>
<path d="M55.9599 20.865C56.2118 21.5578 56.4434 22.2465 56.6546 22.9312C56.7619 23.2081 56.7996 23.5067 56.7643 23.8012C56.7525 23.8886 56.719 23.9716 56.6668 24.0429C56.6008 24.1162 56.5225 24.1775 56.4352 24.2242C56.0926 24.4067 55.7143 24.5139 55.3262 24.5383" stroke="#B87756" stroke-width="1.04" stroke-linecap="round" stroke-linejoin="round"/>
<path d="M57.0938 15.2584C57.3342 14.7247 57.7572 14.2925 58.288 14.0382C58.8188 13.7839 59.4232 13.7239 59.9944 13.8688C60.9816 14.0138 60.9816 13.9776 61.2862 14.908C60.6125 15.0708 59.914 15.1077 59.2266 15.0167C58.5441 15.0167 57.9956 15.4397 57.0938 15.2584Z" fill="#542615"/>
<path d="M47.3438 16.0679C47.3805 15.9446 47.4338 15.8268 47.5022 15.7175C47.5544 15.6195 47.6156 15.5265 47.685 15.4396C48.1431 14.9467 48.7674 14.6373 49.44 14.5696C49.8106 14.5219 50.1872 14.5556 50.5431 14.6684C50.8991 14.7812 51.2257 14.9702 51.4997 15.2221C51.3584 15.3433 51.1937 15.4347 51.0156 15.4908C50.8375 15.5469 50.6497 15.5665 50.4637 15.5483C50.3667 15.5616 50.2683 15.5616 50.1712 15.5483C50.0061 15.5181 49.8367 15.5181 49.6716 15.5483C49.4526 15.5633 49.2381 15.6165 49.0378 15.7054C48.9018 15.7884 48.7751 15.8856 48.66 15.9954C48.4967 16.0924 48.3202 16.1657 48.1359 16.2129C47.9459 16.2713 47.7432 16.2755 47.5509 16.225L47.3438 16.0679Z" fill="#542615"/>
<path d="M58.1297 26.9188L52.5234 26.1455C52.5234 26.1455 52.6575 29.553 54.8878 29.7705C56.8378 29.9759 58.1297 26.9188 58.1297 26.9188Z" fill="#D99878"/>
<path d="M52.8037 19.1251C52.8037 19.1251 53.4618 20.2005 52.499 20.2005C51.5362 20.2005 48.209 20.2972 48.209 20.2972C48.209 20.2972 48.9159 17.3368 52.8037 19.0889" fill="#F6F5F7"/>
<path d="M53.0106 18.6417H52.9375C51.7188 17.2883 49.4763 17.82 48.2453 18.9558C48.1355 19.0486 48.0373 19.1541 47.9528 19.27C47.9049 19.3468 47.8642 19.4276 47.831 19.5117C47.7482 19.6736 47.6828 19.8437 47.636 20.0192C47.6122 20.0773 47.6122 20.1423 47.636 20.2004C47.6423 20.219 47.6535 20.2356 47.6685 20.2483C47.6836 20.2611 47.7018 20.2696 47.7213 20.2729H47.8066H48.0016C48.0578 20.285 48.116 20.285 48.1722 20.2729C48.2197 20.264 48.2643 20.244 48.3025 20.2146C48.3406 20.1852 48.3712 20.1472 48.3916 20.1038C48.6963 19.6808 48.806 19.2579 49.2569 18.8954C49.3844 18.7947 49.531 18.7203 49.688 18.6767C49.845 18.6331 50.0092 18.6212 50.171 18.6417C50.161 19.1924 50.0664 19.7384 49.8906 20.2608H52.7913C52.7913 20.2608 53.6444 19.4392 53.0106 18.7383" fill="#542615"/>
<path d="M61.3718 19.4755L57.2158 19.9105C57.2158 19.9105 58.3493 17.4938 60.0555 17.8201C61.7618 18.1463 61.3718 19.4755 61.3718 19.4755Z" fill="#F6F5F7"/>
<path d="M60.5673 17.5302C59.9417 17.3552 59.2794 17.3552 58.6538 17.5302C58.2021 17.63 57.7859 17.8488 57.4491 18.1636C57.1124 18.4783 56.8675 18.8773 56.7404 19.3186C56.7085 19.4079 56.7007 19.504 56.7178 19.5972C56.7349 19.6905 56.7763 19.7777 56.8379 19.8502C56.9057 19.9131 56.995 19.9481 57.0878 19.9481C57.1805 19.9481 57.2699 19.9131 57.3376 19.8502C57.3884 19.7902 57.4257 19.7202 57.4473 19.6448C57.7642 18.9077 58.5685 17.9169 59.507 18.1102C59.3971 18.6524 59.2338 19.1826 59.0195 19.6931L61.3717 19.4515C61.3717 19.4515 61.457 19.3548 61.4692 19.3306C61.5302 19.2556 61.5757 19.1693 61.6032 19.0769C61.6091 19.0126 61.6091 18.9479 61.6032 18.8836C61.6217 18.7553 61.6217 18.6251 61.6032 18.4969C61.5912 18.3946 61.558 18.2959 61.5057 18.2069L61.3351 17.9894C61.284 17.9348 61.2267 17.8861 61.1645 17.8444L60.9329 17.6873C60.8206 17.6154 60.697 17.5623 60.5673 17.5302Z" fill="#542615"/>
<path d="M111.565 85.4953C108.629 88.2658 87.7225 108.541 82.0918 106.838C76.4612 105.134 47.9668 52.6438 61.4584 49.3693C61.4584 49.3693 64.8587 46.5901 67.5522 49.6351C70.2456 52.6801 76.9853 61.0297 90.3672 87.0209C90.3672 87.0209 109.793 78.8834 112.624 78.0198C115.455 77.1561 114.501 82.7247 111.565 85.4953Z" fill="#F1B99D"/>
<path d="M85.4926 72.9318C76.1935 57.6705 69.7098 52.0518 67.5648 49.6351C64.8592 46.5901 61.471 49.3693 61.471 49.3693C52.4035 51.5684 62.2023 75.8801 71.3551 92.1805C75.7034 85.509 80.4232 79.0827 85.4926 72.9318Z" fill="#B87756"/>
<mask id="mask0_2745_106996" style="mask-type:alpha" maskUnits="userSpaceOnUse" x="10" y="1" width="120" height="120">
<circle cx="70" cy="61" r="60" fill="#E6E3E8"/>
</mask>
<g mask="url(#mask0_2745_106996)">
<path d="M60.2314 43.8016C56.0968 45.4616 47.1242 42.9372 41.7734 41.5083C37.4838 40.3627 43.829 47.7192 52.4526 48.6001C62.5456 49.6311 63.0561 42.6676 60.2314 43.8016Z" fill="#F1B99D"/>
<path d="M39.0962 40.7781C38.5481 40.7781 37.9878 40.899 37.4397 40.9715C36.866 41.0095 36.3024 41.1401 35.7711 41.3581C35.4614 41.5876 35.1646 41.8337 34.8819 42.0952C33.8588 42.8685 32.8113 43.5573 31.8247 44.379C30.8472 45.2017 29.9237 46.0856 29.0599 47.0252L28.9381 47.1581C24.7555 51.7107 22.2299 57.5215 21.7641 63.664C20.4243 81.1244 26.3681 135.777 26.3681 135.777L76.7568 133.868L76.4401 63.6035C76.2234 59.1602 74.8331 54.8515 72.4085 51.1094C71.4341 49.599 70.4475 48.0765 69.3757 46.6385C68.7114 45.5116 67.7893 44.5555 66.6839 43.8473C66.1222 43.5541 65.5244 43.3348 64.9056 43.1948C64.2136 43.0654 63.498 43.1542 62.8594 43.4485C62.6489 43.5402 62.4184 43.5776 62.1895 43.5573L60.3201 43.5644C60.3183 44.9111 59.2664 46.2779 58.0483 46.7956C56.7781 47.3034 55.406 47.5103 54.0411 47.3998C52.5033 47.4243 50.9746 47.162 49.5345 46.6265C48.5717 46.1992 47.6705 45.6465 46.8549 44.9831C45.5294 43.9129 44.3062 42.7237 43.2009 41.4306C43.0246 41.1908 42.8008 40.9893 42.5431 40.8385C42.2565 40.728 41.9485 40.6826 41.6418 40.7056C40.7649 40.6694 39.9244 40.7056 39.0962 40.7781Z" fill="#10384F"/>
<path d="M77.4366 52.1243C77.4366 52.1243 71.1235 37.866 61.1054 44.7293C51.0873 51.5926 60.5204 81.233 66.6385 87.1539L86.5163 74.9255L77.4366 52.1243Z" fill="#10384F"/>
<path d="M76.4987 75.397L86.5168 70.2012L88.4903 73.9614L76.3945 81.2983L76.4987 75.397Z" fill="#00639E"/>
<g style="mix-blend-mode:multiply" opacity="0.35">
<path d="M34.0975 43.7419C25.0909 50.5878 22.4824 59.8868 21.7877 68.3998C20.447 85.4969 26.3591 135.753 26.3591 135.753L32.7934 135.021" fill="#A81E35"/>
</g>
</g>
<path d="M61.4989 94.6431C61.954 94.8187 62.4653 94.5917 62.6409 94.1366L67.3646 81.8881C67.5402 81.433 67.3132 80.9217 66.8581 80.7461C66.4031 80.5705 66.176 80.0592 66.3516 79.6041L66.5272 79.1491C66.6411 78.8565 66.4954 78.5281 66.2028 78.4142L61.649 76.6576L54.7237 94.6288L59.8091 96.5893L60.3635 95.1509C60.5391 94.6958 61.0505 94.4688 61.5055 94.6444L61.4989 94.6431Z" fill="#FFA959"/>
<path d="M67.1835 79.5698L48.6357 126.566L14.5603 113.118L33.1081 66.1214L67.1835 79.5698Z" fill="white"/>
<path opacity="0.1" d="M46.2986 128.778L14.6186 116.061C14.0134 115.82 13.7194 115.138 13.961 114.532L32.9155 66.8019C33.1572 66.1967 33.8393 65.9027 34.4445 66.1443L64.7416 78.174C65.3468 78.4156 65.6408 79.0978 65.3992 79.703L59.4996 94.5598C59.3682 94.8893 59.3934 95.2573 59.5642 95.5655C59.8584 96.0937 59.4245 96.4696 59.7187 96.9977C59.8895 97.306 59.914 97.6772 59.7833 98.0035L47.8249 128.116C47.5833 128.722 46.9011 129.016 46.2959 128.774L46.2986 128.778Z" fill="black"/>
<path d="M47.104 128.029L14.5667 115.49C13.9591 115.255 13.6582 114.576 13.8936 113.968L32.3618 66.0471C32.5972 65.4395 33.2764 65.1385 33.884 65.374L64.3019 77.095C64.9095 77.3304 65.2104 78.0095 64.975 78.6172L59.2267 93.5332C59.0987 93.8641 59.1277 94.2317 59.3015 94.5382C59.6011 95.0633 59.9007 95.5885 60.2002 96.1137C60.3741 96.4201 60.4024 96.7911 60.2751 97.1187L48.6235 127.352C48.3881 127.959 47.7089 128.26 47.1013 128.025L47.104 128.029Z" fill="#FFA959"/>
<path d="M4.81093 106.366C20.1062 109.822 45.9768 104.526 47.7197 104.767L49.2837 95.511L24.1403 94.7181C21.6541 93.8844 21.9344 94.5973 22.7509 91.8786C25.03 84.3144 35.5966 65.5248 35.6697 65.2952L12.4159 60.2686L0.910931 94.8511C-0.551569 98.8265 0.581869 105.424 4.81093 106.366Z" fill="#F1B99D"/>
<path d="M28.7469 78.5324C32.1594 72.1094 33.4503 70.6264 33.499 70.5L10.6484 65.8472L5.16406 82.1059C13.0006 80.7615 20.8494 79.5091 28.7469 78.5324Z" fill="#B87756"/>
<path d="M35.1963 44.8553C24.279 38.712 9.59975 63.8704 5.16504 72.3399L28.041 80.9107C29.9589 77.0346 46.1135 50.9986 35.1963 44.8553Z" fill="#10384F"/>
<path d="M2.83691 73.1373L6.93191 66.7573L30.8438 79.0461L28.26 82.8644L2.83691 73.1373Z" fill="#00639E"/>
<path d="M101.618 111.546L100.748 120.932C100.709 121.035 100.683 121.144 100.669 121.254C100.664 121.356 100.666 121.458 100.674 121.56C100.957 122.812 103.498 124.003 106.808 124.262L107.31 124.255C108.581 124.338 109.857 124.24 111.1 123.963C111.531 123.9 111.945 123.751 112.318 123.525C112.691 123.299 113.015 123.001 113.271 122.649C113.31 122.54 113.337 122.428 113.35 122.313C113.368 122.207 113.367 122.098 113.345 121.992L120.941 39.9344L114.657 39.4109L108.301 38.7768L101.618 111.546Z" fill="#E6E3E8"/>
<path d="M116.363 76.6155C116.446 94.0642 107.841 103.91 101.618 111.546L100.749 120.932C100.71 121.035 100.683 121.143 100.67 121.253C100.664 121.356 100.666 121.458 100.674 121.56C100.957 122.812 103.499 124.003 106.808 124.262L107.31 124.255C108.581 124.338 109.857 124.24 111.1 123.963C111.908 123.682 112.648 123.234 113.271 122.649C113.311 122.54 113.337 122.428 113.35 122.313C113.369 122.207 113.367 122.098 113.346 121.992L120.942 39.9343L114.657 39.4108C114.897 40.579 116.23 48.9012 116.363 76.6155Z" fill="#BEBAC2"/>
<path d="M108.3 38.6234C108.181 40.02 110.92 41.3756 114.44 41.6738C117.959 41.972 120.89 41.1069 120.996 39.7384C121.101 38.3699 118.362 37.0144 114.842 36.7022C111.323 36.3901 108.378 37.2553 108.3 38.6234Z" fill="#959199"/>
<mask id="mask1_2745_106996" style="mask-type:alpha" maskUnits="userSpaceOnUse" x="7" y="40" width="80" height="96">
<path fill-rule="evenodd" clip-rule="evenodd" d="M56.7786 59.4347L41.5428 40.7023C41.5705 40.7033 41.5983 40.7044 41.626 40.7055C41.9328 40.6825 42.241 40.7279 42.5278 40.8385C42.7855 40.9892 43.0095 41.1907 43.1858 41.4305C44.2916 42.7236 45.5153 43.9128 46.8414 44.983C47.6574 45.6464 48.5589 46.1991 49.5222 46.6264C50.9629 47.1619 52.4923 47.4242 54.0308 47.3997C55.3963 47.5102 56.769 47.3033 58.0397 46.7955C59.0918 46.3486 60.0493 45.2545 60.2756 44.0731L60.0693 58.5405C60.0706 58.9256 59.9441 59.3004 59.7091 59.6069C59.4741 59.9135 59.1438 60.1348 58.7692 60.2365C58.3946 60.3383 57.9967 60.3149 57.6369 60.17C57.2771 60.0251 56.9755 59.7666 56.7786 59.4347ZM68.5443 43.142C69.0749 43.7838 69.5693 44.983 70.1417 46.3714L70.1417 46.3715C70.7657 47.8849 71.4823 49.6231 72.4396 51.1093C74.857 54.8538 76.2398 59.1624 76.4493 63.6034L76.5024 75.3946L84.9568 71.0098L77.4364 52.1243C77.4364 52.1243 74.1451 44.6909 68.5443 43.142ZM86.4603 74.7854L82.467 77.4165L86.5161 74.9256L86.4603 74.7854ZM76.7549 80.9305L76.5029 75.5038L76.528 81.07L76.7549 80.9305ZM26.3464 135.777C26.3464 135.777 24.8165 121.721 23.4835 105.588C24.8162 121.721 26.3456 135.777 26.3456 135.777L26.3464 135.777ZM7.96484 67.2882C12.7224 59.1333 20.8836 47.1109 28.5907 44.4386C29.863 43.9975 31.1229 43.8111 32.353 43.9391C33.3219 44.0398 34.2723 44.3355 35.1958 44.8552C44.6768 50.1903 33.7404 70.5284 29.4426 78.326L7.96484 67.2882Z" fill="#003A5C"/>
</mask>
<g mask="url(#mask1_2745_106996)">
<path d="M96.7781 27.8189C96.7842 27.9195 96.7842 28.0204 96.7781 28.121C96.7781 29.6193 94.8038 30.0302 94.17 30.1752C89.0381 31.4848 84.156 33.6153 79.7156 36.4827C78.3994 37.2681 77.071 38.0897 75.7913 38.8993C73.0735 40.5668 70.2825 42.3068 67.3941 43.8052L66.7725 44.1556C63.031 46.2702 61.4344 46.826 60.7763 46.2943C60.6703 46.2058 60.5834 46.0971 60.5206 45.9746C60.4578 45.8522 60.4204 45.7185 60.4106 45.5814C60.301 44.4939 61.6294 42.766 63.0797 41.0502L63.3722 40.7118C69.1267 33.5149 76.9516 28.2221 85.8094 25.5352C87.4479 24.9878 89.1627 24.6983 90.8916 24.6772C92.6757 24.6763 94.4026 25.3012 95.7666 26.4414C96.2613 26.7636 96.6208 27.2532 96.7781 27.8189ZM93.9506 29.3172C95.1694 29.0514 95.8519 28.6285 95.8763 28.1089C95.8537 27.9064 95.7877 27.711 95.6826 27.5359C95.5775 27.3608 95.4357 27.2101 95.2669 27.0939C94.0459 26.0762 92.4989 25.5235 90.9038 25.5352C89.2455 25.5558 87.6007 25.833 86.0288 26.3568C77.3549 29.0032 69.6936 34.1935 64.0547 41.2435L63.75 41.5939C62.056 43.6602 61.215 44.8685 61.276 45.4968C61.276 45.5814 61.276 45.5935 61.276 45.6056C61.5563 45.7264 62.6653 45.4485 66.2972 43.4064L66.9431 43.0439C69.795 41.5577 72.5738 39.8298 75.2672 38.1502C76.486 37.3527 77.8753 36.531 79.1916 35.7335C83.7295 32.8186 88.7138 30.6518 93.9506 29.3172Z" fill="#0078BD"/>
</g>
<path d="M64.6211 93.0738L55.4579 91.007L55.695 88.9358C55.7622 88.5634 55.6999 88.1791 55.5183 87.847C55.3368 87.5149 55.0469 87.255 54.6971 87.1106C54.364 86.9688 53.9936 86.9401 53.6426 87.0289C53.2916 87.1176 52.9794 87.3189 52.7536 87.602L46.6826 96.2259L42.007 102.825C47.3784 105.5 52.4158 105.068 53.8397 103.872L60.9801 104.418C61.1454 104.445 61.3144 104.44 61.4776 104.402C61.6407 104.364 61.7948 104.294 61.9311 104.197C62.0673 104.1 62.183 103.976 62.2716 103.834C62.3602 103.692 62.4199 103.534 62.4473 103.368C62.5512 102.852 62.4302 102.109 60.9629 101.779L62.4302 102.109C62.7831 102.161 63.1422 102.072 63.43 101.861C63.7178 101.65 63.9111 101.335 63.9682 100.983C63.9776 100.594 63.8501 100.215 63.608 99.9105C63.3658 99.6065 63.0245 99.3973 62.6437 99.3196L63.7246 99.4584C63.9177 99.4859 64.1143 99.473 64.3021 99.4205C64.4898 99.3681 64.6647 99.2771 64.8155 99.1536C64.9663 99.03 65.0898 98.8764 65.1781 98.7026C65.2664 98.5288 65.3177 98.3385 65.3287 98.1439C65.337 97.8 65.23 97.4631 65.0246 97.1871C64.8192 96.9111 64.5274 96.7118 64.1956 96.621L62.5485 96.2471L64.3714 96.2279C64.5791 96.2453 64.7882 96.2195 64.9855 96.152C65.1827 96.0844 65.3638 95.9767 65.5173 95.8356C65.6708 95.6946 65.7933 95.5232 65.8772 95.3323C65.961 95.1414 66.0044 94.9353 66.0045 94.7268C66.0091 94.3315 65.8722 93.9476 65.6185 93.6445C65.3648 93.3413 65.011 93.1389 64.6211 93.0738Z" fill="#F1B99D"/>
<path d="M57.3531 95.7739L63.6271 96.512C63.6696 96.5182 63.7128 96.5078 63.7477 96.4827C63.7826 96.4577 63.8064 96.4202 63.8141 96.3779C63.8181 96.3553 63.8173 96.332 63.8118 96.3097C63.8063 96.2873 63.7962 96.2664 63.7822 96.2482C63.7682 96.2299 63.7505 96.2148 63.7303 96.2038C63.7101 96.1928 63.6878 96.1861 63.6649 96.1842L57.406 95.4528C57.3675 95.4538 57.3305 95.4682 57.3014 95.4935C57.2723 95.5188 57.253 95.5534 57.2467 95.5915C57.2405 95.6295 57.2477 95.6685 57.2671 95.7018C57.2865 95.7351 57.3169 95.7606 57.3531 95.7739Z" fill="#B87756"/>
<path d="M63.5455 99.7773C63.5879 99.7835 63.6312 99.773 63.666 99.748C63.7009 99.723 63.7247 99.6854 63.7324 99.6432C63.735 99.6014 63.7231 99.5599 63.6987 99.5259C63.6742 99.4918 63.6388 99.4672 63.5984 99.4562L58.7474 98.5382C58.7254 98.5364 58.7033 98.5391 58.6823 98.546C58.6613 98.5529 58.6419 98.564 58.6253 98.5785C58.6086 98.5931 58.595 98.6108 58.5853 98.6306C58.5756 98.6505 58.57 98.6721 58.5688 98.6942C58.5626 98.7366 58.5731 98.7799 58.5981 98.8147C58.6231 98.8496 58.6607 98.8734 58.7029 98.8811L63.5455 99.7773Z" fill="#B87756"/>
<path d="M62.0227 102.29C62.061 102.289 62.0984 102.278 62.1304 102.257C62.1624 102.236 62.1876 102.206 62.2029 102.171C62.2108 102.148 62.2139 102.125 62.2119 102.101C62.21 102.078 62.2031 102.055 62.1917 102.035C62.1803 102.014 62.1646 101.996 62.1458 101.982C62.127 101.968 62.1053 101.958 62.0824 101.953L57.8024 100.692C57.7605 100.682 57.7163 100.687 57.6778 100.706C57.6393 100.725 57.6088 100.758 57.5919 100.797C57.5808 100.842 57.587 100.889 57.6094 100.93C57.6318 100.97 57.6686 101 57.7125 101.015L61.9925 102.276L62.0227 102.29Z" fill="#B87756"/>
<path d="M109.991 77.7335C109.941 77.2637 110.04 76.7912 110.269 76.4081C110.498 76.025 110.84 75.7589 111.229 75.6618L117.672 74.1509C117.918 74.0959 118.172 74.1017 118.418 74.1679C118.664 74.2341 118.897 74.3594 119.102 74.5359C119.307 74.7124 119.479 74.9365 119.609 75.1943C119.739 75.4521 119.824 75.7382 119.858 76.0347C119.924 76.6067 119.798 77.1839 119.507 77.6404C119.216 78.097 118.783 78.3959 118.303 78.4722L111.775 79.3049C111.368 79.3627 110.955 79.2317 110.623 78.9391C110.291 78.6465 110.064 78.2148 109.991 77.7335Z" fill="#F1B99D"/>
<path d="M110.991 80.9364C110.962 80.4866 111.068 80.0412 111.291 79.6797C111.514 79.3182 111.838 79.0643 112.207 78.9632L117.567 77.8776C117.805 77.8262 118.051 77.8337 118.288 77.8996C118.526 77.9654 118.75 78.0882 118.947 78.2605C119.144 78.4327 119.309 78.6506 119.433 78.9008C119.557 79.151 119.637 79.428 119.668 79.7149C119.729 80.2723 119.602 80.8329 119.315 81.2745C119.029 81.7161 118.605 82.003 118.137 82.0727L112.76 82.5098C112.557 82.5514 112.35 82.543 112.149 82.4853C111.948 82.4275 111.759 82.3216 111.593 82.1741C111.428 82.0266 111.289 81.8406 111.185 81.6277C111.082 81.4148 111.016 81.1795 110.991 80.9364Z" fill="#F1B99D"/>
<path d="M111.44 84.0943C111.396 83.658 111.496 83.2205 111.719 82.8743C111.942 82.528 112.271 82.3 112.636 82.2385L116.635 81.537C116.859 81.4849 117.091 81.4864 117.316 81.5415C117.541 81.5966 117.755 81.7042 117.946 81.858C118.136 82.0117 118.3 82.2086 118.427 82.4372C118.554 82.6658 118.642 82.9215 118.685 83.1894C118.709 83.7092 118.564 84.2176 118.281 84.6097C117.997 85.0019 117.597 85.2481 117.161 85.2976L113.085 85.3965C112.726 85.4649 112.356 85.3686 112.051 85.1269C111.746 84.8852 111.528 84.5162 111.44 84.0943Z" fill="#F1B99D"/>
<path d="M111.481 86.5578C111.437 86.1309 111.531 85.7022 111.744 85.3586C111.957 85.0151 112.274 84.7825 112.629 84.7081L115.832 84.5674C116.052 84.5239 116.277 84.5324 116.495 84.5924C116.713 84.6525 116.92 84.7629 117.103 84.9173C117.286 85.0718 117.442 85.2672 117.562 85.4925C117.682 85.7177 117.764 85.9683 117.803 86.2299C117.833 86.726 117.707 87.2155 117.449 87.6024C117.191 87.9894 116.819 88.2459 116.406 88.3219L113.141 87.8579C112.78 87.9365 112.404 87.8449 112.095 87.6024C111.785 87.3599 111.565 86.9854 111.481 86.5578Z" fill="#F1B99D"/>
<path d="M111.564 79.5999L118.955 78.5613C119.004 78.5506 119.048 78.5194 119.079 78.4733C119.11 78.4272 119.125 78.3692 119.123 78.31C119.117 78.2479 119.091 78.1906 119.051 78.1495C119.011 78.1084 118.96 78.0866 118.907 78.0885L111.531 79.1251C111.504 79.1286 111.478 79.1383 111.454 79.1539C111.431 79.1694 111.41 79.1905 111.393 79.2157C111.376 79.241 111.363 79.27 111.356 79.3012C111.349 79.3323 111.347 79.365 111.35 79.3973C111.36 79.4556 111.386 79.5081 111.426 79.5452C111.465 79.5824 111.514 79.6018 111.564 79.5999Z" fill="#B87756"/>
<path d="M118.096 82.3079C118.146 82.3014 118.192 82.2714 118.224 82.2242C118.255 82.1771 118.269 82.1168 118.263 82.0566C118.257 81.9946 118.232 81.9372 118.192 81.8962C118.152 81.8551 118.1 81.8333 118.048 81.8351L112.285 82.2828C112.235 82.2893 112.189 82.3194 112.157 82.3665C112.126 82.4136 112.112 82.4739 112.118 82.5341C112.124 82.5961 112.15 82.6535 112.189 82.6946C112.229 82.7356 112.281 82.7574 112.333 82.7556L118.096 82.3079Z" fill="#B87756"/>
<path d="M117.202 85.7133C117.248 85.7037 117.291 85.6754 117.321 85.6332C117.352 85.591 117.37 85.5374 117.371 85.4812C117.373 85.4508 117.369 85.4203 117.361 85.3914C117.352 85.3626 117.339 85.336 117.321 85.3132C117.304 85.2904 117.283 85.2719 117.26 85.2588C117.237 85.2457 117.211 85.2383 117.186 85.2369L111.845 84.923C111.819 84.9208 111.794 84.9247 111.769 84.9345C111.745 84.9443 111.723 84.9598 111.704 84.9801C111.685 85.0003 111.67 85.025 111.659 85.0525C111.648 85.08 111.642 85.1099 111.642 85.1403C111.648 85.1698 111.66 85.1974 111.676 85.2215C111.692 85.2456 111.712 85.2658 111.734 85.2807C111.757 85.2957 111.782 85.3052 111.807 85.3087C111.833 85.3121 111.859 85.3095 111.883 85.3009L117.145 85.625L117.202 85.7133Z" fill="#B87756"/>
</svg>