<svg xmlns:xlink="http://www.w3.org/1999/xlink" class="CK__Icon--large" viewBox="0 0 24 24" fill="none" xmlns="http://www.w3.org/2000/svg" width="24"  height="24" ><path fill-rule="evenodd" clip-rule="evenodd" d="M3.5 1A1.5 1.5 0 0 0 2 2.5v19A1.5 1.5 0 0 0 3.5 23h17a1.5 1.5 0 0 0 1.5-1.5v-19A1.5 1.5 0 0 0 20.5 1h-17ZM3 2.5a.5.5 0 0 1 .5-.5h17a.5.5 0 0 1 .5.5V5H3V2.5ZM3 6v15.5a.5.5 0 0 0 .5.5h17a.5.5 0 0 0 .5-.5V6h-9v2a.505.505 0 0 1-.005.072c.345.102.644.302.893.53.36.331.654.757.882 1.156a8.86 8.86 0 0 1 .694 1.564l.01.029.002.008.001.003-.477.15.477-.149a.5.5 0 0 1-.477.649H9a.5.5 0 0 1-.477-.649l.477.149-.477-.15v-.003l.003-.008.01-.03.035-.103a8.862 8.862 0 0 1 .659-1.46c.228-.4.521-.825.882-1.156.249-.228.548-.428.893-.53A.505.505 0 0 1 11 8V6H3Zm6.5 7a.5.5 0 0 1 .5.5v1a.5.5 0 0 1-1 0v-1a.5.5 0 0 1 .5-.5Zm2.5.5a.5.5 0 0 0-1 0v1a.5.5 0 0 0 1 0v-1Zm1.5-.5a.5.5 0 0 1 .5.5v1a.5.5 0 0 1-1 0v-1a.5.5 0 0 1 .5-.5ZM10 16.5a.5.5 0 0 0-1 0v1a.5.5 0 0 0 1 0v-1Zm1.5-.5a.5.5 0 0 1 .5.5v1a.5.5 0 0 1-1 0v-1a.5.5 0 0 1 .5-.5Zm2.5.5a.5.5 0 0 0-1 0v1a.5.5 0 0 0 1 0v-1Zm-4.276-5.488h3.552a7.578 7.578 0 0 0-.374-.758c-.202-.354-.436-.682-.69-.915C11.957 9.105 11.72 9 11.5 9c-.221 0-.457.105-.712.339-.254.233-.488.561-.69.915-.15.263-.275.528-.374.758ZM20 3.5a.5.5 0 0 1-.5.5h-1a.5.5 0 0 1 0-1h1a.5.5 0 0 1 .5.5Zm-3.5.5a.5.5 0 0 0 0-1h-1a.5.5 0 0 0 0 1h1Z" fill="#3D3B40"></path></svg>