<svg xmlns:xlink="http://www.w3.org/1999/xlink" class="CK__Icon--large" viewBox="0 0 24 24" fill="none" xmlns="http://www.w3.org/2000/svg" width="24"  height="24" ><path fill-rule="evenodd" clip-rule="evenodd" d="M12 10a.5.5 0 0 0 .5-.5V7.207l1.646 1.647a.5.5 0 0 0 .708-.708L13.207 6.5H15.5a.5.5 0 0 0 0-1h-2.293l1.647-1.646a.5.5 0 0 0-.708-.708L12.5 4.793V2.5a.5.5 0 0 0-1 0v2.293L9.854 3.146a.5.5 0 1 0-.708.708L10.793 5.5H8.5a.5.5 0 0 0 0 1h2.293L9.146 8.146a.5.5 0 1 0 .708.708L11.5 7.207V9.5a.5.5 0 0 0 .5.5Zm9.188 12c.956 0 1.812-.721 1.812-1.7v-5.6c0-.979-.856-1.7-1.813-1.7H2.813C1.857 13 1 13.721 1 14.7v5.6c0 .979.856 1.7 1.813 1.7h18.375ZM22 20.3c0 .344-.322.7-.813.7H2.813c-.49 0-.812-.356-.812-.7v-5.6c0-.344.322-.7.813-.7h18.375c.49 0 .812.356.812.7v5.6ZM3.5 19a.5.5 0 0 0 0 1h17a.5.5 0 0 0 0-1h-17ZM3 17.5a.5.5 0 0 1 .5-.5h17a.5.5 0 0 1 0 1h-17a.5.5 0 0 1-.5-.5Zm.5-2.5a.5.5 0 0 0 0 1h17a.5.5 0 0 0 0-1h-17Z" fill="#3D3B40"></path></svg>