<svg xmlns:xlink="http://www.w3.org/1999/xlink" class="CK__Icon--large" viewBox="0 0 24 24" fill="none" xmlns="http://www.w3.org/2000/svg" width="24"  height="24" ><path fill-rule="evenodd" clip-rule="evenodd" d="M6 6.5c0-.535.274-1.42.927-2.172C7.565 3.596 8.555 3 10 3s2.435.596 3.073 1.328C13.726 5.08 14 5.965 14 6.5v.523c-1.493.14-2.68.885-3.5 1.6a8.555 8.555 0 0 0-1.323 1.462l-.073.106-.02.03-.005.01-.002.002v.001s-.001.001.423.266l-.424-.265A.5.5 0 0 0 9.5 11h10a.5.5 0 0 0 .424-.765l-.424.265.424-.265-.001-.002-.002-.003-.006-.009-.02-.03a7.275 7.275 0 0 0-.347-.472 8.557 8.557 0 0 0-1.047-1.096c-.82-.715-2.008-1.46-3.501-1.6V6.5c0-.799-.376-1.913-1.173-2.828C13.014 2.738 11.755 2 10 2s-3.015.738-3.827 1.672C5.376 4.587 5 5.702 5 6.5v15a.5.5 0 0 0 1 0v-15ZM14.5 8c-1.396 0-2.534.67-3.343 1.377a7.491 7.491 0 0 0-.633.623h7.952a7.491 7.491 0 0 0-.633-.623C17.033 8.67 15.896 8 14.5 8Zm-2 7a.5.5 0 0 1 .5.5v1a.5.5 0 0 1-1 0v-1a.5.5 0 0 1 .5-.5Zm-1.5.5a.5.5 0 0 0-1 0v1a.5.5 0 0 0 1 0v-1Zm-.5 2.5a.5.5 0 0 1 .5.5v1a.5.5 0 0 1-1 0v-1a.5.5 0 0 1 .5-.5Zm2.5-5.5a.5.5 0 0 0-1 0v1a.5.5 0 0 0 1 0v-1Zm-2.5-.5a.5.5 0 0 1 .5.5v1a.5.5 0 0 1-1 0v-1a.5.5 0 0 1 .5-.5Zm4.5 3.5a.5.5 0 0 0-1 0v1a.5.5 0 0 0 1 0v-1ZM12.5 18a.5.5 0 0 1 .5.5v1a.5.5 0 0 1-1 0v-1a.5.5 0 0 1 .5-.5Zm2.5-5.5a.5.5 0 0 0-1 0v1a.5.5 0 0 0 1 0v-1Zm1.5 2.5a.5.5 0 0 1 .5.5v1a.5.5 0 0 1-1 0v-1a.5.5 0 0 1 .5-.5ZM15 18.5a.5.5 0 0 0-1 0v1a.5.5 0 0 0 1 0v-1Zm1.5-6.5a.5.5 0 0 1 .5.5v1a.5.5 0 0 1-1 0v-1a.5.5 0 0 1 .5-.5Zm2.5.5a.5.5 0 0 0-1 0v1a.5.5 0 0 0 1 0v-1Zm-.5 2.5a.5.5 0 0 1 .5.5v1a.5.5 0 0 1-1 0v-1a.5.5 0 0 1 .5-.5ZM17 18.5a.5.5 0 0 0-1 0v1a.5.5 0 0 0 1 0v-1Zm1.5-.5a.5.5 0 0 1 .5.5v1a.5.5 0 0 1-1 0v-1a.5.5 0 0 1 .5-.5Z" fill="#3D3B40"></path></svg>