<svg xmlns:xlink="http://www.w3.org/1999/xlink" class="CK__Icon--large" viewBox="0 0 24 24" fill="none" xmlns="http://www.w3.org/2000/svg" width="24"  height="24" ><path fill-rule="evenodd" clip-rule="evenodd" d="M17 5c-1.069 0-2 .813-2 1.893V10H9V6.893C9 5.813 8.069 5 7 5s-2 .813-2 1.893v.205A1.284 1.284 0 0 0 4.5 7c-.458 0-.869.223-1.137.673C3.115 8.089 3 8.676 3 9.429V10h-.5A1.5 1.5 0 0 0 1 11.5v1A1.5 1.5 0 0 0 2.5 14H3v.571c0 .753.115 1.34.363 1.756.268.45.679.673 1.137.673.175 0 .344-.033.5-.098v.205C5 18.187 5.931 19 7 19s2-.813 2-1.893V14h6v3.107c0 1.08.931 1.893 2 1.893s2-.813 2-1.893v-.205c.156.065.325.098.5.098.458 0 .869-.223 1.137-.673.248-.416.363-1.003.363-1.756V14h.5a1.5 1.5 0 0 0 1.5-1.5v-1a1.5 1.5 0 0 0-1.5-1.5H21v-.571c0-.753-.115-1.34-.363-1.756C20.369 7.223 19.958 7 19.5 7c-.175 0-.344.033-.5.098v-.205C19 5.813 18.069 5 17 5Zm4 6v2h.5a.5.5 0 0 0 .5-.5v-1a.5.5 0 0 0-.5-.5H21Zm-1-.5V9.429c0-.677-.108-1.053-.222-1.244C19.684 8.027 19.594 8 19.5 8c-.094 0-.184.027-.278.185-.114.19-.222.567-.222 1.244v5.142c0 .677.108 1.053.222 1.244.094.158.184.185.278.185.094 0 .184-.027.278-.185.114-.19.222-.567.222-1.244V10.5ZM6 14.571V6.893C6 6.434 6.412 6 7 6c.588 0 1 .434 1 .893v10.214c0 .459-.412.893-1 .893-.588 0-1-.434-1-.893v-2.536ZM4.778 8.185c.114.19.222.567.222 1.244v5.142c0 .677-.108 1.053-.222 1.244-.094.158-.184.185-.278.185-.094 0-.184-.027-.278-.185-.114-.19-.222-.567-.222-1.244V9.43c0-.677.108-1.053.222-1.244C4.316 8.027 4.406 8 4.5 8c.094 0 .184.027.278.185ZM2.5 11H3v2h-.5a.5.5 0 0 1-.5-.5v-1a.5.5 0 0 1 .5-.5ZM18 9.429V6.893C18 6.434 17.588 6 17 6c-.588 0-1 .434-1 .893v10.214c0 .459.412.893 1 .893.588 0 1-.434 1-.893V9.43ZM9 13v-2h6v2H9Z" fill="#3D3B40"></path></svg>