<svg xmlns:xlink="http://www.w3.org/1999/xlink" class="CK__Icon--large" viewBox="0 0 24 24" fill="none" xmlns="http://www.w3.org/2000/svg" width="24"  height="24" ><path fill-rule="evenodd" clip-rule="evenodd" d="M4 4.5c0-.172.017-.34.05-.503A.505.505 0 0 1 4 4h-.5a.5.5 0 0 0-.5.5v13a.5.5 0 0 0 .5.5H6v-2.05a2.5 2.5 0 0 1-2-2.45v-9ZM3.5 19H4v1h.02H4v.028a2.44 2.44 0 0 0 .019.261c.018.162.054.387.131.619.147.44.518 1.092 1.35 1.092.832 0 1.203-.651 1.35-1.092a3.051 3.051 0 0 0 .15-.88V20.001L6.5 20H7v-1h13.5a1.5 1.5 0 0 0 1.5-1.5v-13A1.5 1.5 0 0 0 20.5 3H9a.499.499 0 0 0-.38.175 2.498 2.498 0 0 0-4.24 0A.499.499 0 0 0 4 3h-.5A1.5 1.5 0 0 0 2 4.5v13A1.5 1.5 0 0 0 3.5 19Zm2.5.999V19H5v1.006a1.406 1.406 0 0 0 .013.173c.013.12.038.27.086.413.103.31.233.408.4.408.17 0 .299-.099.402-.408a2.055 2.055 0 0 0 .1-.586v-.007ZM20.5 18H7v-2.05a2.5 2.5 0 0 0 2-2.45v-9c0-.172-.017-.34-.05-.503A.508.508 0 0 0 9 4H20.5a.5.5 0 0 1 .5.5v13a.5.5 0 0 1-.5.5ZM6.5 3A1.5 1.5 0 0 0 5 4.5v9a1.5 1.5 0 0 0 3 0v-9A1.5 1.5 0 0 0 6.5 3Zm5 3a.5.5 0 0 0-.5.5v7a.5.5 0 0 0 .5.5h7a.5.5 0 0 0 .5-.5v-7a.5.5 0 0 0-.5-.5h-7Zm.5 7V7h6v6h-6Zm0 4a1 1 0 1 0 0-2 1 1 0 0 0 0 2Zm4-1a1 1 0 1 1-2 0 1 1 0 0 1 2 0Zm2 1a1 1 0 1 0 0-2 1 1 0 0 0 0 2Z" fill="#3D3B40"></path></svg>