<svg xmlns:xlink="http://www.w3.org/1999/xlink" class="CK__Icon--large" viewBox="0 0 24 24" fill="none" xmlns="http://www.w3.org/2000/svg" width="24"  height="24" ><path fill-rule="evenodd" clip-rule="evenodd" d="m13.247 1.945-.914-.818a.499.499 0 0 0-.668 0l-7.498 6.7a.5.5 0 0 0-.06.065l-1.94 1.735a.5.5 0 1 0 .666.746L4 9.329V20.5A2.5 2.5 0 0 0 6.5 23h11a2.5 2.5 0 0 0 2.5-2.5V9.329l1.167 1.044a.5.5 0 1 0 .666-.746l-1.94-1.735a.497.497 0 0 0-.06-.065l-6.586-5.882Zm-.667.745L19 8.434V20.5a1.5 1.5 0 0 1-1.5 1.5H17v-7.5a.5.5 0 0 0-.5-.5h-9a.5.5 0 0 0-.5.5V22h-.5A1.5 1.5 0 0 1 5 20.5V8.434l7-6.263.58.519ZM8 15h8v7H8v-7Zm0-5.5a.5.5 0 0 1 .5-.5h7a.5.5 0 0 1 0 1h-7a.5.5 0 0 1-.5-.5Zm1 7a.5.5 0 0 1 .5-.5h5a.5.5 0 0 1 0 1h-5a.5.5 0 0 1-.5-.5Zm.5 1.5a.5.5 0 0 0 0 1h5a.5.5 0 0 0 0-1h-5ZM9 20.5a.5.5 0 0 1 .5-.5h5a.5.5 0 0 1 0 1h-5a.5.5 0 0 1-.5-.5Z" fill="#3D3B40"></path></svg>