<svg xmlns:xlink="http://www.w3.org/1999/xlink" class="CK__Icon--large TagsAndDescription__StyledShareLg-sc-1vx73m4-6 erQVAo" viewBox="0 0 24 24" fill="none" xmlns="http://www.w3.org/2000/svg" data-testid="sharelg" width="24"  height="24" ><path fill-rule="evenodd" clip-rule="evenodd" d="M12.354 1.146a.5.5 0 0 0-.708 0l-4 4a.5.5 0 1 0 .708.708L11.5 2.707V16.5a.5.5 0 0 0 1 0V2.707l3.146 3.147a.5.5 0 0 0 .708-.708l-4-4ZM3.5 10a.5.5 0 0 0-.5.5v9A3.5 3.5 0 0 0 6.5 23h11a3.5 3.5 0 0 0 3.5-3.5v-9a.5.5 0 0 0-.5-.5h-4a.5.5 0 0 0 0 1H20v8.5a2.5 2.5 0 0 1-2.5 2.5h-11A2.5 2.5 0 0 1 4 19.5V11h3.5a.5.5 0 0 0 0-1h-4Z" fill="#3D3B40"></path></svg>