<svg xmlns:xlink="http://www.w3.org/1999/xlink" class="CK__Icon--large" viewBox="0 0 24 24" fill="none" xmlns="http://www.w3.org/2000/svg" width="24"  height="24" ><path fill-rule="evenodd" clip-rule="evenodd" d="M7 1.5a.5.5 0 0 0-1 0V2h-.5A1.5 1.5 0 0 0 4 3.5v9c0 .232.052.45.146.647a.5.5 0 0 0-.143.409l1 9A.5.5 0 0 0 5.5 23h6a.5.5 0 0 0 .485-.379L12.89 19h2.61c.85 0 1.973-.281 2.889-1.134.927-.863 1.582-2.257 1.582-4.366a.498.498 0 0 0-.127-.333A1.5 1.5 0 0 0 18.5 11h-9c-.175 0-.344.03-.5.085V3.5A1.5 1.5 0 0 0 7.5 2H7v-.5ZM7.5 14H5.059l.889 8h5.162l.905-3.621A.5.5 0 0 1 12.5 18h3c.65 0 1.512-.219 2.207-.866.621-.578 1.157-1.544 1.25-3.134H7.5Zm.5-1.5v-9a.5.5 0 0 0-.5-.5h-2a.5.5 0 0 0-.5.5v9a.5.5 0 0 0 .5.5h2a.5.5 0 0 0 .5-.5Zm11 0a.5.5 0 0 1-.5.5h-9a.5.5 0 0 1 0-1h9a.5.5 0 0 1 .5.5Z" fill="#3D3B40"></path></svg>