<svg xmlns:xlink="http://www.w3.org/1999/xlink" class="CK__Icon--large" viewBox="0 0 24 24" fill="none" xmlns="http://www.w3.org/2000/svg" width="24"  height="24" ><path d="M8.084 14.723a.5.5 0 0 0 .832.554l-.832-.554Zm7 .554a.5.5 0 0 0 .832-.554l-.832.554Zm-8.938-3.13a.5.5 0 0 0 .708.707l-.708-.708Zm11 .707a.5.5 0 0 0 .708-.708l-.708.708ZM4.116 10.18a.5.5 0 0 0 .768.64l-.768-.64Zm15 .64a.5.5 0 0 0 .768-.64l-.768.64ZM12 18a1 1 0 0 0 1-1h-1v1Zm1-1a1 1 0 0 0-1-1v1h1Zm-1-1a1 1 0 0 0-1 1h1v-1Zm-1 1a1 1 0 0 0 1 1v-1h-1Zm-2.5-2 .416.278-.001.001v.001h-.001l.003-.004.024-.031c.024-.03.063-.078.118-.136.11-.117.285-.28.53-.443C10.078 14.341 10.858 14 12 14v-1c-1.357 0-2.327.409-2.965.834a4.083 4.083 0 0 0-.703.588 3.01 3.01 0 0 0-.24.289l-.005.007-.002.002v.002L8.5 15Zm3.5-1c1.143 0 1.923.341 2.41.666.246.164.42.326.531.443a1.994 1.994 0 0 1 .142.167l.003.005v-.002h-.001v-.001L15.5 15l.416-.278-.001-.002-.002-.002a4.086 4.086 0 0 0-.948-.884C14.327 13.409 13.357 13 12 13v1Zm-5.5-1.5.353.354.001-.001.013-.012a4.738 4.738 0 0 1 .307-.258 7.091 7.091 0 0 1 .999-.642A8.091 8.091 0 0 1 12 11v-1a9.092 9.092 0 0 0-4.298 1.059c-.497.265-.88.531-1.14.733a5.772 5.772 0 0 0-.405.344l-.007.007-.002.002-.001.001.353.354ZM12 11c1.652 0 2.947.472 3.827.941.44.235.777.469 1 .642a4.745 4.745 0 0 1 .306.258l.013.012.001.002v-.001l.353-.354.353-.354-.001-.001-.002-.002-.007-.007a3.49 3.49 0 0 0-.104-.096 5.737 5.737 0 0 0-.3-.248 8.113 8.113 0 0 0-1.141-.733A9.092 9.092 0 0 0 12 10v1Zm-7.5-.5.384.32v.001s0-.002.002-.003c.004-.004.01-.01.017-.02l.076-.082c.07-.073.178-.182.324-.313a8.64 8.64 0 0 1 1.33-.974C7.817 8.718 9.604 8 12 8V7c-2.605 0-4.568.782-5.882 1.571A9.641 9.641 0 0 0 4.634 9.66a6.889 6.889 0 0 0-.506.505l-.008.01-.002.003-.001.001.383.321ZM12 8c2.395 0 4.182.718 5.368 1.429a8.644 8.644 0 0 1 1.329.974 5.903 5.903 0 0 1 .417.415l.003.003.383-.321.384-.32v-.001l-.002-.001-.002-.003-.008-.01a2.72 2.72 0 0 0-.127-.139 6.89 6.89 0 0 0-.38-.366 9.638 9.638 0 0 0-1.483-1.089C16.568 7.782 14.605 7 12 7v1Z" fill="#3D3B40"></path></svg>