<svg width="52" height="52" viewBox="0 0 52 52" fill="none" xmlns="http://www.w3.org/2000/svg">
<path d="M49.1089 20.2227H2.88672V24.556H4.86298C6.2427 24.556 7.43982 25.5083 7.75006 26.8527L11.5534 43.3338H11.8C12.3948 41.6507 14 40.4449 15.8867 40.4449C17.4008 40.4449 18.7334 41.2214 19.5083 42.3978C19.8536 42.9222 20.3933 43.3338 21.0211 43.3338H30.9745C31.6024 43.3338 32.142 42.9222 32.4874 42.3978C33.2622 41.2214 34.5949 40.4449 36.1089 40.4449C37.9957 40.4449 39.6008 41.6507 40.1957 43.3338H40.4423L44.2456 26.8527C44.5558 25.5083 45.753 24.556 47.1327 24.556H49.1089V20.2227Z" fill="#256AF5"/>
<circle cx="15.8889" cy="44.778" r="2.88889" fill="#256AF5"/>
<ellipse cx="36.1096" cy="44.778" rx="2.88889" ry="2.88889" fill="#256AF5"/>
<path d="M12.2793 28.166H39.7237L39.0015 30.3327H13.0015L12.2793 28.166Z" fill="white"/>
<path d="M13.7188 33.9443H38.2743L37.5521 36.111H14.441L13.7188 33.9443Z" fill="white"/>
<path fill-rule="evenodd" clip-rule="evenodd" d="M15.3654 17.3326H38.8972L36.3178 12.1738L34.1353 10.1104H30.6432L28.0274 12.1035L28.0626 12.174L29.0943 14.7534L27.0387 12.6978L25.4051 11.6308L21.04 11.2507L19.294 13.5314L16.2384 13.1513L13.6194 15.432L13.1035 17.3326H15.3654Z" fill="#3BB56C"/>
</svg>
