<svg width="75" height="16" viewBox="0 0 75 16" fill="none" xmlns="http://www.w3.org/2000/svg">
<path d="M9.47656 10.2832H12.3965C12.3379 11.2402 12.0742 12.0898 11.6055 12.832C11.1432 13.5742 10.4954 14.1536 9.66211 14.5703C8.83529 14.987 7.83919 15.1953 6.67383 15.1953C5.76237 15.1953 4.94531 15.0391 4.22266 14.7266C3.5 14.4076 2.88151 13.9518 2.36719 13.3594C1.85938 12.7669 1.47201 12.0508 1.20508 11.2109C0.938151 10.3711 0.804688 9.43034 0.804688 8.38867V7.40234C0.804688 6.36068 0.941406 5.41992 1.21484 4.58008C1.49479 3.73372 1.89193 3.01432 2.40625 2.42188C2.92708 1.82943 3.54883 1.3737 4.27148 1.05469C4.99414 0.735677 5.80143 0.576172 6.69336 0.576172C7.87826 0.576172 8.8776 0.791016 9.69141 1.2207C10.5117 1.65039 11.1465 2.24284 11.5957 2.99805C12.0514 3.75326 12.3249 4.61263 12.416 5.57617H9.48633C9.45378 5.00326 9.33984 4.51823 9.14453 4.12109C8.94922 3.71745 8.65299 3.41471 8.25586 3.21289C7.86523 3.00456 7.3444 2.90039 6.69336 2.90039C6.20508 2.90039 5.77865 2.99154 5.41406 3.17383C5.04948 3.35612 4.74349 3.63281 4.49609 4.00391C4.2487 4.375 4.06315 4.84375 3.93945 5.41016C3.82227 5.97005 3.76367 6.6276 3.76367 7.38281V8.38867C3.76367 9.12435 3.81901 9.77214 3.92969 10.332C4.04036 10.8854 4.20964 11.3542 4.4375 11.7383C4.67188 12.1159 4.97135 12.4023 5.33594 12.5977C5.70703 12.7865 6.15299 12.8809 6.67383 12.8809C7.28581 12.8809 7.79036 12.7832 8.1875 12.5879C8.58464 12.3926 8.88737 12.1029 9.0957 11.7188C9.31055 11.3346 9.4375 10.8561 9.47656 10.2832ZM16.957 6.73828V15H14.1445V4.43359H16.791L16.957 6.73828ZM20.1406 4.36523L20.0918 6.97266C19.9551 6.95312 19.7891 6.93685 19.5938 6.92383C19.4049 6.9043 19.2324 6.89453 19.0762 6.89453C18.679 6.89453 18.334 6.94661 18.041 7.05078C17.7546 7.14844 17.5137 7.29492 17.3184 7.49023C17.1296 7.68555 16.9863 7.92318 16.8887 8.20312C16.7975 8.48307 16.7454 8.80208 16.7324 9.16016L16.166 8.98438C16.166 8.30078 16.2344 7.67253 16.3711 7.09961C16.5078 6.52018 16.7064 6.01562 16.9668 5.58594C17.2337 5.15625 17.5592 4.82422 17.9434 4.58984C18.3275 4.35547 18.7669 4.23828 19.2617 4.23828C19.418 4.23828 19.5775 4.2513 19.7402 4.27734C19.903 4.29688 20.0365 4.32617 20.1406 4.36523ZM26.8398 12.6172V7.91016C26.8398 7.57161 26.7845 7.2819 26.6738 7.04102C26.5632 6.79362 26.3906 6.60156 26.1562 6.46484C25.9284 6.32812 25.6322 6.25977 25.2676 6.25977C24.9551 6.25977 24.6849 6.3151 24.457 6.42578C24.2292 6.52995 24.0534 6.68294 23.9297 6.88477C23.806 7.08008 23.7441 7.3112 23.7441 7.57812H20.9316C20.9316 7.12891 21.0358 6.70247 21.2441 6.29883C21.4525 5.89518 21.7552 5.54036 22.1523 5.23438C22.5495 4.92188 23.0215 4.67773 23.5684 4.50195C24.1217 4.32617 24.7402 4.23828 25.4238 4.23828C26.2441 4.23828 26.9733 4.375 27.6113 4.64844C28.2493 4.92188 28.7507 5.33203 29.1152 5.87891C29.4863 6.42578 29.6719 7.10938 29.6719 7.92969V12.4512C29.6719 13.0306 29.7077 13.5059 29.7793 13.877C29.8509 14.2415 29.9551 14.5605 30.0918 14.834V15H27.25C27.1133 14.7135 27.0091 14.3555 26.9375 13.9258C26.8724 13.4896 26.8398 13.0534 26.8398 12.6172ZM27.2109 8.56445L27.2305 10.1562H25.6582C25.2871 10.1562 24.9648 10.1986 24.6914 10.2832C24.418 10.3678 24.1934 10.4883 24.0176 10.6445C23.8418 10.7943 23.7116 10.9701 23.627 11.1719C23.5488 11.3737 23.5098 11.5951 23.5098 11.8359C23.5098 12.0768 23.5651 12.2949 23.6758 12.4902C23.7865 12.679 23.946 12.8288 24.1543 12.9395C24.3626 13.0436 24.6068 13.0957 24.8867 13.0957C25.3099 13.0957 25.6777 13.0111 25.9902 12.8418C26.3027 12.6725 26.5436 12.4642 26.7129 12.2168C26.8887 11.9694 26.9798 11.735 26.9863 11.5137L27.7285 12.7051C27.6243 12.972 27.4811 13.2487 27.2988 13.5352C27.123 13.8216 26.8984 14.0918 26.625 14.3457C26.3516 14.5931 26.0228 14.7982 25.6387 14.9609C25.2546 15.1172 24.7988 15.1953 24.2715 15.1953C23.6009 15.1953 22.9922 15.0618 22.4453 14.7949C21.9049 14.5215 21.4753 14.1471 21.1562 13.6719C20.8438 13.1901 20.6875 12.6432 20.6875 12.0312C20.6875 11.4779 20.7917 10.9863 21 10.5566C21.2083 10.127 21.5143 9.76562 21.918 9.47266C22.3281 9.17318 22.8392 8.94857 23.4512 8.79883C24.0632 8.64258 24.7728 8.56445 25.5801 8.56445H27.2109ZM34.5938 6.68945V15H31.7812V4.43359H34.418L34.5938 6.68945ZM34.1836 9.3457H33.4219C33.4219 8.56445 33.5228 7.86133 33.7246 7.23633C33.9264 6.60482 34.2096 6.06771 34.5742 5.625C34.9388 5.17578 35.3717 4.83398 35.873 4.59961C36.3809 4.35872 36.9473 4.23828 37.5723 4.23828C38.0671 4.23828 38.5195 4.3099 38.9297 4.45312C39.3398 4.59635 39.6914 4.82422 39.9844 5.13672C40.2839 5.44922 40.5117 5.86263 40.668 6.37695C40.8307 6.89128 40.9121 7.51953 40.9121 8.26172V15H38.0801V8.25195C38.0801 7.7832 38.015 7.41862 37.8848 7.1582C37.7546 6.89779 37.5625 6.71549 37.3086 6.61133C37.0612 6.50065 36.7552 6.44531 36.3906 6.44531C36.013 6.44531 35.6842 6.52018 35.4043 6.66992C35.1309 6.81966 34.903 7.02799 34.7207 7.29492C34.5449 7.55534 34.4115 7.86133 34.3203 8.21289C34.2292 8.56445 34.1836 8.94206 34.1836 9.3457ZM46.0195 4.43359V15H43.1973V4.43359H46.0195ZM43.0215 1.67969C43.0215 1.26953 43.1647 0.93099 43.4512 0.664062C43.7376 0.397135 44.1217 0.263672 44.6035 0.263672C45.0788 0.263672 45.4596 0.397135 45.7461 0.664062C46.0391 0.93099 46.1855 1.26953 46.1855 1.67969C46.1855 2.08984 46.0391 2.42839 45.7461 2.69531C45.4596 2.96224 45.0788 3.0957 44.6035 3.0957C44.1217 3.0957 43.7376 2.96224 43.4512 2.69531C43.1647 2.42839 43.0215 2.08984 43.0215 1.67969ZM54.5938 12.4707V4.43359H57.4062V15H54.7598L54.5938 12.4707ZM54.9062 10.3027L55.7363 10.2832C55.7363 10.9863 55.6549 11.6406 55.4922 12.2461C55.3294 12.8451 55.0853 13.3659 54.7598 13.8086C54.4342 14.2448 54.0241 14.5866 53.5293 14.834C53.0345 15.0749 52.4518 15.1953 51.7812 15.1953C51.2669 15.1953 50.7917 15.1237 50.3555 14.9805C49.9258 14.8307 49.5547 14.5996 49.2422 14.2871C48.9362 13.9681 48.6953 13.5612 48.5195 13.0664C48.3503 12.5651 48.2656 11.9629 48.2656 11.2598V4.43359H51.0781V11.2793C51.0781 11.5918 51.1139 11.8555 51.1855 12.0703C51.2637 12.2852 51.3711 12.4609 51.5078 12.5977C51.6445 12.7344 51.804 12.832 51.9863 12.8906C52.1751 12.9492 52.3835 12.9785 52.6113 12.9785C53.1908 12.9785 53.6465 12.8613 53.9785 12.627C54.3171 12.3926 54.5547 12.0736 54.6914 11.6699C54.8346 11.2598 54.9062 10.804 54.9062 10.3027ZM62.3672 6.62109V15H59.5449V4.43359H62.1914L62.3672 6.62109ZM61.9766 9.3457H61.1953C61.1953 8.61003 61.2832 7.93294 61.459 7.31445C61.6413 6.68945 61.9049 6.14909 62.25 5.69336C62.6016 5.23112 63.0345 4.87305 63.5488 4.61914C64.0632 4.36523 64.6589 4.23828 65.3359 4.23828C65.8047 4.23828 66.2344 4.3099 66.625 4.45312C67.0156 4.58984 67.3509 4.80794 67.6309 5.10742C67.9173 5.40039 68.1387 5.78451 68.2949 6.25977C68.4512 6.72852 68.5293 7.29167 68.5293 7.94922V15H65.7168V8.26172C65.7168 7.77995 65.6517 7.40885 65.5215 7.14844C65.3913 6.88802 65.2057 6.70573 64.9648 6.60156C64.7305 6.4974 64.4473 6.44531 64.1152 6.44531C63.7507 6.44531 63.4316 6.52018 63.1582 6.66992C62.8913 6.81966 62.6699 7.02799 62.4941 7.29492C62.3184 7.55534 62.1882 7.86133 62.1035 8.21289C62.0189 8.56445 61.9766 8.94206 61.9766 9.3457ZM68.2656 9.02344L67.2598 9.15039C67.2598 8.46029 67.3444 7.81901 67.5137 7.22656C67.6895 6.63411 67.9466 6.11328 68.2852 5.66406C68.6302 5.21484 69.0566 4.86654 69.5645 4.61914C70.0723 4.36523 70.6582 4.23828 71.3223 4.23828C71.8301 4.23828 72.2923 4.31315 72.709 4.46289C73.1257 4.60612 73.4805 4.83724 73.7734 5.15625C74.0729 5.46875 74.3008 5.87891 74.457 6.38672C74.6198 6.89453 74.7012 7.51628 74.7012 8.25195V15H71.8789V8.25195C71.8789 7.76367 71.8138 7.39258 71.6836 7.13867C71.5599 6.87826 71.3776 6.69922 71.1367 6.60156C70.9023 6.4974 70.6224 6.44531 70.2969 6.44531C69.9583 6.44531 69.6621 6.51367 69.4082 6.65039C69.1543 6.7806 68.9427 6.96289 68.7734 7.19727C68.6042 7.43164 68.4772 7.70508 68.3926 8.01758C68.3079 8.32357 68.2656 8.65885 68.2656 9.02344Z" fill="#3D3B40"/>
</svg>
