<svg width="160" height="19" viewBox="0 0 160 19" fill="none" xmlns="http://www.w3.org/2000/svg">
<path d="M3.6875 8.3302V18.2443H0.3125V5.56458H3.48828L3.6875 8.3302ZM7.50781 5.48254L7.44922 8.61145C7.28516 8.58801 7.08594 8.56848 6.85156 8.55286C6.625 8.52942 6.41797 8.5177 6.23047 8.5177C5.75391 8.5177 5.33984 8.5802 4.98828 8.7052C4.64453 8.82239 4.35547 8.99817 4.12109 9.23254C3.89453 9.46692 3.72266 9.75208 3.60547 10.088C3.49609 10.424 3.43359 10.8068 3.41797 11.2365L2.73828 11.0255C2.73828 10.2052 2.82031 9.45129 2.98438 8.76379C3.14844 8.06848 3.38672 7.46301 3.69922 6.94739C4.01953 6.43176 4.41016 6.03333 4.87109 5.75208C5.33203 5.47083 5.85938 5.3302 6.45312 5.3302C6.64062 5.3302 6.83203 5.34583 7.02734 5.37708C7.22266 5.40051 7.38281 5.43567 7.50781 5.48254ZM14.7031 18.4786C13.7188 18.4786 12.8359 18.3224 12.0547 18.0099C11.2734 17.6896 10.6094 17.2482 10.0625 16.6857C9.52344 16.1232 9.10938 15.4708 8.82031 14.7286C8.53125 13.9786 8.38672 13.1818 8.38672 12.338V11.8693C8.38672 10.9083 8.52344 10.0294 8.79688 9.23254C9.07031 8.43567 9.46094 7.74426 9.96875 7.15833C10.4844 6.57239 11.1094 6.12317 11.8438 5.81067C12.5781 5.49036 13.4062 5.3302 14.3281 5.3302C15.2266 5.3302 16.0234 5.47864 16.7188 5.77551C17.4141 6.07239 17.9961 6.49426 18.4648 7.04114C18.9414 7.58801 19.3008 8.24426 19.543 9.00989C19.7852 9.7677 19.9062 10.6115 19.9062 11.5411V12.9474H9.82812V10.6974H16.5898V10.4396C16.5898 9.97083 16.5039 9.55286 16.332 9.18567C16.168 8.81067 15.918 8.51379 15.582 8.29504C15.2461 8.07629 14.8164 7.96692 14.293 7.96692C13.8477 7.96692 13.4648 8.06458 13.1445 8.25989C12.8242 8.4552 12.5625 8.72864 12.3594 9.0802C12.1641 9.43176 12.0156 9.84583 11.9141 10.3224C11.8203 10.7911 11.7734 11.3068 11.7734 11.8693V12.338C11.7734 12.8458 11.8438 13.3146 11.9844 13.7443C12.1328 14.174 12.3398 14.545 12.6055 14.8575C12.8789 15.17 13.207 15.4122 13.5898 15.5841C13.9805 15.756 14.4219 15.8419 14.9141 15.8419C15.5234 15.8419 16.0898 15.7247 16.6133 15.4904C17.1445 15.2482 17.6016 14.8849 17.9844 14.4005L19.625 16.1818C19.3594 16.5646 18.9961 16.9318 18.5352 17.2833C18.082 17.6349 17.5352 17.924 16.8945 18.1505C16.2539 18.3693 15.5234 18.4786 14.7031 18.4786ZM28.6719 15.3849V9.73645C28.6719 9.3302 28.6055 8.98254 28.4727 8.69348C28.3398 8.39661 28.1328 8.16614 27.8516 8.00208C27.5781 7.83801 27.2227 7.75598 26.7852 7.75598C26.4102 7.75598 26.0859 7.82239 25.8125 7.9552C25.5391 8.0802 25.3281 8.26379 25.1797 8.50598C25.0312 8.74036 24.957 9.0177 24.957 9.33801H21.582C21.582 8.79895 21.707 8.28723 21.957 7.80286C22.207 7.31848 22.5703 6.8927 23.0469 6.52551C23.5234 6.15051 24.0898 5.85754 24.7461 5.64661C25.4102 5.43567 26.1523 5.3302 26.9727 5.3302C27.957 5.3302 28.832 5.49426 29.5977 5.82239C30.3633 6.15051 30.9648 6.6427 31.4023 7.29895C31.8477 7.9552 32.0703 8.77551 32.0703 9.75989V15.1857C32.0703 15.881 32.1133 16.4513 32.1992 16.8966C32.2852 17.3341 32.4102 17.7169 32.5742 18.045V18.2443H29.1641C29 17.9005 28.875 17.4708 28.7891 16.9552C28.7109 16.4318 28.6719 15.9083 28.6719 15.3849ZM29.1172 10.5216L29.1406 12.4318H27.2539C26.8086 12.4318 26.4219 12.4825 26.0938 12.5841C25.7656 12.6857 25.4961 12.8302 25.2852 13.0177C25.0742 13.1974 24.918 13.4083 24.8164 13.6505C24.7227 13.8927 24.6758 14.1583 24.6758 14.4474C24.6758 14.7365 24.7422 14.9982 24.875 15.2325C25.0078 15.4591 25.1992 15.6388 25.4492 15.7716C25.6992 15.8966 25.9922 15.9591 26.3281 15.9591C26.8359 15.9591 27.2773 15.8575 27.6523 15.6544C28.0273 15.4513 28.3164 15.2013 28.5195 14.9044C28.7305 14.6075 28.8398 14.3263 28.8477 14.0607L29.7383 15.4904C29.6133 15.8107 29.4414 16.1427 29.2227 16.4865C29.0117 16.8302 28.7422 17.1544 28.4141 17.4591C28.0859 17.756 27.6914 18.0021 27.2305 18.1974C26.7695 18.3849 26.2227 18.4786 25.5898 18.4786C24.7852 18.4786 24.0547 18.3185 23.3984 17.9982C22.75 17.67 22.2344 17.2208 21.8516 16.6505C21.4766 16.0724 21.2891 15.4161 21.2891 14.6818C21.2891 14.0177 21.4141 13.4279 21.6641 12.9122C21.9141 12.3966 22.2812 11.963 22.7656 11.6115C23.2578 11.2521 23.8711 10.9825 24.6055 10.8029C25.3398 10.6154 26.1914 10.5216 27.1602 10.5216H29.1172ZM38.2344 0.244263V18.2443H34.8477V0.244263H38.2344ZM46.8594 18.4786C45.875 18.4786 44.9922 18.3224 44.2109 18.0099C43.4297 17.6896 42.7656 17.2482 42.2188 16.6857C41.6797 16.1232 41.2656 15.4708 40.9766 14.7286C40.6875 13.9786 40.543 13.1818 40.543 12.338V11.8693C40.543 10.9083 40.6797 10.0294 40.9531 9.23254C41.2266 8.43567 41.6172 7.74426 42.125 7.15833C42.6406 6.57239 43.2656 6.12317 44 5.81067C44.7344 5.49036 45.5625 5.3302 46.4844 5.3302C47.3828 5.3302 48.1797 5.47864 48.875 5.77551C49.5703 6.07239 50.1523 6.49426 50.6211 7.04114C51.0977 7.58801 51.457 8.24426 51.6992 9.00989C51.9414 9.7677 52.0625 10.6115 52.0625 11.5411V12.9474H41.9844V10.6974H48.7461V10.4396C48.7461 9.97083 48.6602 9.55286 48.4883 9.18567C48.3242 8.81067 48.0742 8.51379 47.7383 8.29504C47.4023 8.07629 46.9727 7.96692 46.4492 7.96692C46.0039 7.96692 45.6211 8.06458 45.3008 8.25989C44.9805 8.4552 44.7188 8.72864 44.5156 9.0802C44.3203 9.43176 44.1719 9.84583 44.0703 10.3224C43.9766 10.7911 43.9297 11.3068 43.9297 11.8693V12.338C43.9297 12.8458 44 13.3146 44.1406 13.7443C44.2891 14.174 44.4961 14.545 44.7617 14.8575C45.0352 15.17 45.3633 15.4122 45.7461 15.5841C46.1367 15.756 46.5781 15.8419 47.0703 15.8419C47.6797 15.8419 48.2461 15.7247 48.7695 15.4904C49.3008 15.2482 49.7578 14.8849 50.1406 14.4005L51.7812 16.1818C51.5156 16.5646 51.1523 16.9318 50.6914 17.2833C50.2383 17.6349 49.6914 17.924 49.0508 18.1505C48.4102 18.3693 47.6797 18.4786 46.8594 18.4786ZM60.8398 14.7404C60.8398 14.4982 60.7695 14.2794 60.6289 14.0841C60.4883 13.8888 60.2266 13.7091 59.8438 13.545C59.4688 13.3732 58.9258 13.2169 58.2148 13.0763C57.5742 12.9357 56.9766 12.7599 56.4219 12.549C55.875 12.3302 55.3984 12.0685 54.9922 11.7638C54.5938 11.4591 54.2812 11.0997 54.0547 10.6857C53.8281 10.2638 53.7148 9.78333 53.7148 9.24426C53.7148 8.71301 53.8281 8.21301 54.0547 7.74426C54.2891 7.27551 54.6211 6.86145 55.0508 6.50208C55.4883 6.13489 56.0195 5.84973 56.6445 5.64661C57.2773 5.43567 57.9883 5.3302 58.7773 5.3302C59.8789 5.3302 60.8242 5.50598 61.6133 5.85754C62.4102 6.20911 63.0195 6.69348 63.4414 7.31067C63.8711 7.92004 64.0859 8.61536 64.0859 9.39661H60.7109C60.7109 9.06848 60.6406 8.77551 60.5 8.5177C60.3672 8.25208 60.1562 8.04504 59.8672 7.89661C59.5859 7.74036 59.2188 7.66223 58.7656 7.66223C58.3906 7.66223 58.0664 7.72864 57.793 7.86145C57.5195 7.98645 57.3086 8.15833 57.1602 8.37708C57.0195 8.58801 56.9492 8.82239 56.9492 9.0802C56.9492 9.27551 56.9883 9.45129 57.0664 9.60754C57.1523 9.75598 57.2891 9.8927 57.4766 10.0177C57.6641 10.1427 57.9062 10.2599 58.2031 10.3693C58.5078 10.4708 58.8828 10.5646 59.3281 10.6505C60.2422 10.838 61.0586 11.0841 61.7773 11.3888C62.4961 11.6857 63.0664 12.0919 63.4883 12.6075C63.9102 13.1154 64.1211 13.7833 64.1211 14.6115C64.1211 15.174 63.9961 15.6896 63.7461 16.1583C63.4961 16.6271 63.1367 17.0372 62.668 17.3888C62.1992 17.7325 61.6367 18.0021 60.9805 18.1974C60.332 18.3849 59.6016 18.4786 58.7891 18.4786C57.6094 18.4786 56.6094 18.2677 55.7891 17.8458C54.9766 17.424 54.3594 16.8888 53.9375 16.2404C53.5234 15.5841 53.3164 14.9122 53.3164 14.2247H56.5156C56.5312 14.6857 56.6484 15.0568 56.8672 15.338C57.0938 15.6193 57.3789 15.8224 57.7227 15.9474C58.0742 16.0724 58.4531 16.1349 58.8594 16.1349C59.2969 16.1349 59.6602 16.0763 59.9492 15.9591C60.2383 15.8341 60.457 15.67 60.6055 15.4669C60.7617 15.256 60.8398 15.0138 60.8398 14.7404ZM72.5234 5.56458V7.9552H65.1406V5.56458H72.5234ZM66.9688 2.43567H70.3438V14.424C70.3438 14.7911 70.3906 15.0724 70.4844 15.2677C70.5859 15.463 70.7344 15.5997 70.9297 15.6779C71.125 15.7482 71.3711 15.7833 71.668 15.7833C71.8789 15.7833 72.0664 15.7755 72.2305 15.7599C72.4023 15.7365 72.5469 15.713 72.6641 15.6896L72.6758 18.174C72.3867 18.2677 72.0742 18.3419 71.7383 18.3966C71.4023 18.4513 71.0312 18.4786 70.625 18.4786C69.8828 18.4786 69.2344 18.3575 68.6797 18.1154C68.1328 17.8654 67.7109 17.4669 67.4141 16.92C67.1172 16.3732 66.9688 15.6544 66.9688 14.7638V2.43567ZM81.2891 15.3849V9.73645C81.2891 9.3302 81.2227 8.98254 81.0898 8.69348C80.957 8.39661 80.75 8.16614 80.4688 8.00208C80.1953 7.83801 79.8398 7.75598 79.4023 7.75598C79.0273 7.75598 78.7031 7.82239 78.4297 7.9552C78.1562 8.0802 77.9453 8.26379 77.7969 8.50598C77.6484 8.74036 77.5742 9.0177 77.5742 9.33801H74.1992C74.1992 8.79895 74.3242 8.28723 74.5742 7.80286C74.8242 7.31848 75.1875 6.8927 75.6641 6.52551C76.1406 6.15051 76.707 5.85754 77.3633 5.64661C78.0273 5.43567 78.7695 5.3302 79.5898 5.3302C80.5742 5.3302 81.4492 5.49426 82.2148 5.82239C82.9805 6.15051 83.582 6.6427 84.0195 7.29895C84.4648 7.9552 84.6875 8.77551 84.6875 9.75989V15.1857C84.6875 15.881 84.7305 16.4513 84.8164 16.8966C84.9023 17.3341 85.0273 17.7169 85.1914 18.045V18.2443H81.7812C81.6172 17.9005 81.4922 17.4708 81.4062 16.9552C81.3281 16.4318 81.2891 15.9083 81.2891 15.3849ZM81.7344 10.5216L81.7578 12.4318H79.8711C79.4258 12.4318 79.0391 12.4825 78.7109 12.5841C78.3828 12.6857 78.1133 12.8302 77.9023 13.0177C77.6914 13.1974 77.5352 13.4083 77.4336 13.6505C77.3398 13.8927 77.293 14.1583 77.293 14.4474C77.293 14.7365 77.3594 14.9982 77.4922 15.2325C77.625 15.4591 77.8164 15.6388 78.0664 15.7716C78.3164 15.8966 78.6094 15.9591 78.9453 15.9591C79.4531 15.9591 79.8945 15.8575 80.2695 15.6544C80.6445 15.4513 80.9336 15.2013 81.1367 14.9044C81.3477 14.6075 81.457 14.3263 81.4648 14.0607L82.3555 15.4904C82.2305 15.8107 82.0586 16.1427 81.8398 16.4865C81.6289 16.8302 81.3594 17.1544 81.0312 17.4591C80.7031 17.756 80.3086 18.0021 79.8477 18.1974C79.3867 18.3849 78.8398 18.4786 78.207 18.4786C77.4023 18.4786 76.6719 18.3185 76.0156 17.9982C75.3672 17.67 74.8516 17.2208 74.4688 16.6505C74.0938 16.0724 73.9062 15.4161 73.9062 14.6818C73.9062 14.0177 74.0312 13.4279 74.2812 12.9122C74.5312 12.3966 74.8984 11.963 75.3828 11.6115C75.875 11.2521 76.4883 10.9825 77.2227 10.8029C77.957 10.6154 78.8086 10.5216 79.7773 10.5216H81.7344ZM93.5 5.56458V7.9552H86.1172V5.56458H93.5ZM87.9453 2.43567H91.3203V14.424C91.3203 14.7911 91.3672 15.0724 91.4609 15.2677C91.5625 15.463 91.7109 15.5997 91.9062 15.6779C92.1016 15.7482 92.3477 15.7833 92.6445 15.7833C92.8555 15.7833 93.043 15.7755 93.207 15.7599C93.3789 15.7365 93.5234 15.713 93.6406 15.6896L93.6523 18.174C93.3633 18.2677 93.0508 18.3419 92.7148 18.3966C92.3789 18.4513 92.0078 18.4786 91.6016 18.4786C90.8594 18.4786 90.2109 18.3575 89.6562 18.1154C89.1094 17.8654 88.6875 17.4669 88.3906 16.92C88.0938 16.3732 87.9453 15.6544 87.9453 14.7638V2.43567ZM101.258 18.4786C100.273 18.4786 99.3906 18.3224 98.6094 18.0099C97.8281 17.6896 97.1641 17.2482 96.6172 16.6857C96.0781 16.1232 95.6641 15.4708 95.375 14.7286C95.0859 13.9786 94.9414 13.1818 94.9414 12.338V11.8693C94.9414 10.9083 95.0781 10.0294 95.3516 9.23254C95.625 8.43567 96.0156 7.74426 96.5234 7.15833C97.0391 6.57239 97.6641 6.12317 98.3984 5.81067C99.1328 5.49036 99.9609 5.3302 100.883 5.3302C101.781 5.3302 102.578 5.47864 103.273 5.77551C103.969 6.07239 104.551 6.49426 105.02 7.04114C105.496 7.58801 105.855 8.24426 106.098 9.00989C106.34 9.7677 106.461 10.6115 106.461 11.5411V12.9474H96.3828V10.6974H103.145V10.4396C103.145 9.97083 103.059 9.55286 102.887 9.18567C102.723 8.81067 102.473 8.51379 102.137 8.29504C101.801 8.07629 101.371 7.96692 100.848 7.96692C100.402 7.96692 100.02 8.06458 99.6992 8.25989C99.3789 8.4552 99.1172 8.72864 98.9141 9.0802C98.7188 9.43176 98.5703 9.84583 98.4688 10.3224C98.375 10.7911 98.3281 11.3068 98.3281 11.8693V12.338C98.3281 12.8458 98.3984 13.3146 98.5391 13.7443C98.6875 14.174 98.8945 14.545 99.1602 14.8575C99.4336 15.17 99.7617 15.4122 100.145 15.5841C100.535 15.756 100.977 15.8419 101.469 15.8419C102.078 15.8419 102.645 15.7247 103.168 15.4904C103.699 15.2482 104.156 14.8849 104.539 14.4005L106.18 16.1818C105.914 16.5646 105.551 16.9318 105.09 17.2833C104.637 17.6349 104.09 17.924 103.449 18.1505C102.809 18.3693 102.078 18.4786 101.258 18.4786ZM108.547 16.6154C108.547 16.1154 108.719 15.6974 109.062 15.3615C109.414 15.0255 109.879 14.8575 110.457 14.8575C111.035 14.8575 111.496 15.0255 111.84 15.3615C112.191 15.6974 112.367 16.1154 112.367 16.6154C112.367 17.1154 112.191 17.5333 111.84 17.8693C111.496 18.2052 111.035 18.3732 110.457 18.3732C109.879 18.3732 109.414 18.2052 109.062 17.8693C108.719 17.5333 108.547 17.1154 108.547 16.6154ZM120.582 15.8419C120.996 15.8419 121.363 15.7638 121.684 15.6075C122.004 15.4435 122.254 15.2169 122.434 14.9279C122.621 14.631 122.719 14.2833 122.727 13.8849H125.902C125.895 14.7755 125.656 15.5685 125.188 16.2638C124.719 16.9513 124.09 17.4943 123.301 17.8927C122.512 18.2833 121.629 18.4786 120.652 18.4786C119.668 18.4786 118.809 18.3146 118.074 17.9865C117.348 17.6583 116.742 17.2052 116.258 16.6271C115.773 16.0411 115.41 15.3615 115.168 14.588C114.926 13.8068 114.805 12.9708 114.805 12.0802V11.7404C114.805 10.8419 114.926 10.006 115.168 9.23254C115.41 8.45129 115.773 7.77161 116.258 7.19348C116.742 6.60754 117.348 6.15051 118.074 5.82239C118.801 5.49426 119.652 5.3302 120.629 5.3302C121.668 5.3302 122.578 5.52942 123.359 5.92786C124.148 6.32629 124.766 6.89661 125.211 7.63879C125.664 8.37317 125.895 9.24426 125.902 10.2521H122.727C122.719 9.8302 122.629 9.44739 122.457 9.10364C122.293 8.75989 122.051 8.48645 121.73 8.28333C121.418 8.07239 121.031 7.96692 120.57 7.96692C120.078 7.96692 119.676 8.07239 119.363 8.28333C119.051 8.48645 118.809 8.7677 118.637 9.12708C118.465 9.47864 118.344 9.88098 118.273 10.3341C118.211 10.7794 118.18 11.2482 118.18 11.7404V12.0802C118.18 12.5724 118.211 13.045 118.273 13.4982C118.336 13.9513 118.453 14.3536 118.625 14.7052C118.805 15.0568 119.051 15.3341 119.363 15.5372C119.676 15.7404 120.082 15.8419 120.582 15.8419ZM127.32 12.0333V11.7872C127.32 10.8575 127.453 10.0021 127.719 9.22083C127.984 8.43176 128.371 7.74817 128.879 7.17004C129.387 6.59192 130.012 6.1427 130.754 5.82239C131.496 5.49426 132.348 5.3302 133.309 5.3302C134.27 5.3302 135.125 5.49426 135.875 5.82239C136.625 6.1427 137.254 6.59192 137.762 7.17004C138.277 7.74817 138.668 8.43176 138.934 9.22083C139.199 10.0021 139.332 10.8575 139.332 11.7872V12.0333C139.332 12.9552 139.199 13.8107 138.934 14.5997C138.668 15.381 138.277 16.0646 137.762 16.6505C137.254 17.2286 136.629 17.6779 135.887 17.9982C135.145 18.3185 134.293 18.4786 133.332 18.4786C132.371 18.4786 131.516 18.3185 130.766 17.9982C130.023 17.6779 129.395 17.2286 128.879 16.6505C128.371 16.0646 127.984 15.381 127.719 14.5997C127.453 13.8107 127.32 12.9552 127.32 12.0333ZM130.695 11.7872V12.0333C130.695 12.5646 130.742 13.0607 130.836 13.5216C130.93 13.9825 131.078 14.3888 131.281 14.7404C131.492 15.0841 131.766 15.3536 132.102 15.549C132.438 15.7443 132.848 15.8419 133.332 15.8419C133.801 15.8419 134.203 15.7443 134.539 15.549C134.875 15.3536 135.145 15.0841 135.348 14.7404C135.551 14.3888 135.699 13.9825 135.793 13.5216C135.895 13.0607 135.945 12.5646 135.945 12.0333V11.7872C135.945 11.2716 135.895 10.7872 135.793 10.3341C135.699 9.87317 135.547 9.46692 135.336 9.11536C135.133 8.75598 134.863 8.47473 134.527 8.27161C134.191 8.06848 133.785 7.96692 133.309 7.96692C132.832 7.96692 132.426 8.06848 132.09 8.27161C131.762 8.47473 131.492 8.75598 131.281 9.11536C131.078 9.46692 130.93 9.87317 130.836 10.3341C130.742 10.7872 130.695 11.2716 130.695 11.7872ZM144.781 8.18958V18.2443H141.395V5.56458H144.57L144.781 8.18958ZM144.312 11.4591H143.375C143.375 10.5763 143.48 9.76379 143.691 9.02161C143.91 8.27161 144.227 7.62317 144.641 7.07629C145.062 6.52161 145.582 6.09192 146.199 5.78723C146.816 5.48254 147.531 5.3302 148.344 5.3302C148.906 5.3302 149.422 5.41614 149.891 5.58801C150.359 5.75208 150.762 6.01379 151.098 6.37317C151.441 6.72473 151.707 7.18567 151.895 7.75598C152.082 8.31848 152.176 8.99426 152.176 9.78333V18.2443H148.801V10.1583C148.801 9.5802 148.723 9.13489 148.566 8.82239C148.41 8.50989 148.188 8.29114 147.898 8.16614C147.617 8.04114 147.277 7.97864 146.879 7.97864C146.441 7.97864 146.059 8.06848 145.73 8.24817C145.41 8.42786 145.145 8.67786 144.934 8.99817C144.723 9.31067 144.566 9.67786 144.465 10.0997C144.363 10.5216 144.312 10.9747 144.312 11.4591ZM151.859 11.0724L150.652 11.2247C150.652 10.3966 150.754 9.62708 150.957 8.91614C151.168 8.2052 151.477 7.5802 151.883 7.04114C152.297 6.50208 152.809 6.08411 153.418 5.78723C154.027 5.48254 154.73 5.3302 155.527 5.3302C156.137 5.3302 156.691 5.42004 157.191 5.59973C157.691 5.77161 158.117 6.04895 158.469 6.43176C158.828 6.80676 159.102 7.29895 159.289 7.90833C159.484 8.5177 159.582 9.26379 159.582 10.1466V18.2443H156.195V10.1466C156.195 9.56067 156.117 9.11536 155.961 8.81067C155.812 8.49817 155.594 8.28333 155.305 8.16614C155.023 8.04114 154.688 7.97864 154.297 7.97864C153.891 7.97864 153.535 8.06067 153.23 8.22473C152.926 8.38098 152.672 8.59973 152.469 8.88098C152.266 9.16223 152.113 9.49036 152.012 9.86536C151.91 10.2325 151.859 10.6349 151.859 11.0724Z" fill="#17C2ED"/>
</svg>
